<?xml version="1.0" encoding="UTF-8" standalone="no"?>
<!DOCTYPE svg PUBLIC "-//W3C//DTD SVG 1.1//EN" "http://www.w3.org/Graphics/SVG/1.1/DTD/svg11.dtd">
<svg width="100%" height="100%" viewBox="0 0 48 48" version="1.1" xmlns="http://www.w3.org/2000/svg" xmlns:xlink="http://www.w3.org/1999/xlink" xml:space="preserve" xmlns:serif="http://www.serif.com/" style="fill-rule:evenodd;clip-rule:evenodd;stroke-linejoin:round;stroke-miterlimit:2;">
    <g id="Layer_1-2">
        <g>
            <g id="B-2">
                <path d="M23.69,0C36.77,0 47.38,10.61 47.38,23.69C47.38,36.77 36.77,47.38 23.69,47.38C10.61,47.38 0,36.77 0,23.69C0,10.61 10.61,0 23.69,0Z" style="fill:rgb(193,39,45);fill-rule:nonzero;"/>
            </g>
            <path d="M33.9,30.01C33.97,32.48 32.89,34.84 30.97,36.4C28.82,38.09 26.14,38.96 23.41,38.84L13.5,38.84L13.5,8.53L23.07,8.53C25.5,8.41 27.91,9.07 29.94,10.42C31.58,11.59 32.53,13.5 32.46,15.51C32.48,17.09 31.95,18.62 30.96,19.85C29.94,21.14 28.54,22.07 26.96,22.52L26.96,22.63C28.88,22.78 30.68,23.63 32.03,25C33.28,26.37 33.95,28.16 33.9,30.01ZM27.13,16.47C27.18,15.38 26.68,14.33 25.8,13.68C24.6,12.94 23.2,12.59 21.8,12.68L18.54,12.68L18.54,21.06L21.77,21.06C23.2,21.16 24.63,20.73 25.77,19.86C26.71,18.99 27.21,17.75 27.13,16.47ZM28.61,29.88C28.67,28.56 28.1,27.29 27.06,26.47C25.68,25.56 24.03,25.14 22.38,25.26L18.54,25.26L18.54,34.68L22.78,34.68C24.3,34.77 25.81,34.3 27.02,33.37C28.07,32.52 28.66,31.23 28.61,29.88Z" style="fill:rgb(20,20,20);fill-rule:nonzero;"/>
        </g>
    </g>
</svg>
