<?xml version="1.0" encoding="UTF-8" standalone="no"?>
<!DOCTYPE svg PUBLIC "-//W3C//DTD SVG 1.1//EN" "http://www.w3.org/Graphics/SVG/1.1/DTD/svg11.dtd">
<svg width="100%" height="100%" viewBox="0 0 48 48" version="1.1" xmlns="http://www.w3.org/2000/svg" xmlns:xlink="http://www.w3.org/1999/xlink" xml:space="preserve" xmlns:serif="http://www.serif.com/" style="fill-rule:evenodd;clip-rule:evenodd;stroke-linejoin:round;stroke-miterlimit:2;">
    <g id="Layer_1-2">
        <g>
            <g id="X-2">
                <path d="M23.68,0C36.76,0 47.37,10.6 47.38,23.68C47.38,36.76 36.78,47.37 23.7,47.38C10.62,47.39 0,36.78 0,23.7C0,10.61 10.6,0.01 23.68,0Z" style="fill:rgb(0,113,188);fill-rule:nonzero;"/>
            </g>
            <path d="M30.8,38.84L24.39,27.84C24.27,27.59 24.17,27.33 24.09,27.07C24.03,26.81 23.96,26.56 23.87,26.31L23.78,26.31C23.67,26.59 23.59,26.83 23.51,27.09C23.42,27.35 23.31,27.6 23.18,27.84L16.65,38.84L10.53,38.84L20.67,23.63L11.41,8.53L17.59,8.53L23,18.53C23.42,19.24 23.76,20 24,20.79L24.08,20.79C24.38,20 24.61,19.48 24.73,19.23C24.85,18.98 26.94,15.44 31,8.57L36.68,8.57L27.22,23.57L36.8,38.86L30.8,38.84Z" style="fill:rgb(20,20,20);fill-rule:nonzero;"/>
        </g>
    </g>
</svg>
