<?xml version="1.0" encoding="UTF-8" standalone="no"?>
<!DOCTYPE svg PUBLIC "-//W3C//DTD SVG 1.1//EN" "http://www.w3.org/Graphics/SVG/1.1/DTD/svg11.dtd">
<svg width="100%" height="100%" viewBox="0 0 48 48" version="1.1" xmlns="http://www.w3.org/2000/svg" xmlns:xlink="http://www.w3.org/1999/xlink" xml:space="preserve" xmlns:serif="http://www.serif.com/" style="fill-rule:evenodd;clip-rule:evenodd;stroke-linejoin:round;stroke-miterlimit:2;">
    <g id="Layer_1-2">
        <g>
            <g id="Y-2">
                <path d="M23.69,0C36.77,0 47.38,10.61 47.38,23.69C47.38,36.77 36.77,47.38 23.69,47.38C10.61,47.38 0,36.77 0,23.69C0,10.61 10.61,0 23.69,0Z" style="fill:rgb(252,238,33);fill-rule:nonzero;"/>
            </g>
            <path d="M26.09,27.85L26.09,38.85L21.09,38.85L21.09,27.97L11.24,8.54L16.96,8.54L23.06,21.18C23.24,21.54 23.39,21.91 23.5,22.3C23.6,22.64 23.67,22.91 23.75,23.13C23.9,22.47 24.13,21.83 24.44,21.23L30.82,8.54L36.13,8.54L26.09,27.85Z" style="fill:rgb(20,20,20);fill-rule:nonzero;"/>
        </g>
    </g>
</svg>
